<svg width="363" height="865" viewBox="0 0 363 865" fill="none" xmlns="http://www.w3.org/2000/svg">
<mask id="mask0" mask-type="alpha" maskUnits="userSpaceOnUse" x="0" y="0" width="363" height="865">
<rect width="363" height="865" fill="#C4C4C4"/>
</mask>
<g mask="url(#mask0)">
<path d="M-394.387 -451.558C-151.069 -26.7099 224.347 -148.095 348.648 467.105C491.404 1173.71 -604.51 646.44 -587.935 983M-480.407 -463C-275.662 -105.468 11.0049 -201.203 117.709 356.799C234.382 966.925 -681.519 542.088 -658.576 850.882L-480.407 -463ZM-475.237 -461.96C-268.01 -100.29 24.2987 -197.61 132.142 363.86C250.47 979.899 -676.98 548.735 -654.431 859.203L-475.237 -461.96ZM-470.064 -460.92C-260.362 -95.1171 37.5924 -194.012 146.574 370.913C266.517 992.862 -672.398 555.386 -650.274 867.529L-470.064 -460.92ZM-464.895 -460.92C-252.711 -90.6964 50.8861 -191.254 161.003 377.579C282.648 1005.93 -667.894 561.785 -646.125 875.85L-464.895 -460.92ZM-458.914 -459.879C-244.519 -85.5192 64.3257 -187.653 175.451 384.632C298.601 1018.89 -662.283 568.435 -640.928 884.168L-458.914 -459.879ZM-453.736 -458.839C-236.864 -80.3419 77.6234 -184.064 189.883 391.692C314.693 1031.86 -657.741 575.086 -636.779 892.497L-453.736 -458.839ZM-448.571 -458.839C-229.22 -76.2048 90.9172 -181.511 204.312 397.705C330.788 1043.78 -653.19 580.681 -632.623 899.774L-448.571 -458.839ZM-443.402 -457.799C-221.569 -70.74 104.215 -177.709 218.74 405.419C346.895 1057.86 -648.647 588.14 -628.466 909.14L-443.402 -457.799ZM-437.413 -456.759C-213.373 -65.5667 117.662 -174.115 233.185 412.48C362.852 1070.86 -643.032 594.779 -623.273 917.465L-437.413 -456.759ZM-432.239 -456.759C-205.726 -61.4375 130.96 -171.566 247.617 418.485C378.947 1082.77 -638.485 600.421 -619.12 924.742L-432.239 -456.759ZM-427.113 -455.719C-198.169 -56.2642 145.187 -168.193 261.845 425.541C396.066 1095.49 -633.931 607.028 -614.963 933.068L-427.113 -455.719ZM-421.936 -455.719C-190.505 -51.8317 158.331 -165.392 276.305 432.212C412 1108.6 -629.388 613.431 -610.811 941.385L-421.936 -455.719ZM-415.715 -454.679C-181.802 -46.6544 172.508 -161.771 291.813 439.272C428.986 1121.6 -623.793 620.082 -605.614 949.707L-415.715 -454.679ZM-410.754 -453.638C-174.623 -41.4851 184.761 -158.142 305.248 446.365C443.741 1134.64 -619.215 626.772 -601.445 958.071L-410.754 -453.638ZM-405.577 -453.638C-166.967 -37.3559 197.905 -155.558 319.708 452.342C459.675 1146.55 -614.676 632.335 -597.292 965.317L-405.577 -453.638ZM-399.36 -452.598C-158.26 -31.8792 212.09 -151.716 335.204 460.056C476.652 1160.72 -609.081 639.786 -592.095 974.675L-399.36 -452.598Z" stroke="#FAF7F4" stroke-width="3.94005"/>
</g>
</svg>